PathFileType	4	(X/Y/Z)	./resultDataOpenSim/trcMotMarkerGrf/sub06/qtm-02-01.trc
DataRate	CameraRate	NumFrames	NumMarkers	Units	OrigDataRate	OrigDataStartFrame	OrigNumFrames
250.000000	250.000000	13	24	m	250.000000	64	509
Frame#	Time	L.Toe.Tip			R.Toe.Tip			L.Ankle.Lat			R.Ankle.Lat			L.Ankle.Med			R.Ankle.Med			L.Heel			R.Heel			L.Knee.Lat			R.Knee.Lat			L.Knee.Med			R.Knee.Med			L.Thigh.Upper			R.Thigh.Upper			L.ASIS			R.ASIS			V.Sacral			L.Acromium			R.Acromium			C7			L.Elbow			R.Elbow			L.Wrist.Lat			R.Wrist.Lat
		X1	Y1	Z1	X2	Y2	Z2	X3	Y3	Z3	X4	Y4	Z4	X5	Y5	Z5	X6	Y6	Z6	X7	Y7	Z7	X8	Y8	Z8	X9	Y9	Z9	X10	Y10	Z10	X11	Y11	Z11	X12	Y12	Z12	X13	Y13	Z13	X14	Y14	Z14	X15	Y15	Z15	X16	Y16	Z16	X17	Y17	Z17	X18	Y18	Z18	X19	Y19	Z19	X20	Y20	Z20	X21	Y21	Z21	X22	Y22	Z22	X23	Y23	Z23	X24	Y24	Z24

64	0.252	-1.3695759	0.081438139	-0.097718395	-0.71705452	0.036164628	0.094156728	-1.3523719	0.2115658	-0.13184244	-0.85047133	0.061705096	0.11866849	-1.3348922	0.21497026	-0.049552838	-0.83519229	0.07963562	0.031093263	-1.3935488	0.27272166	-0.086582594	-0.90810453	0.03837035	0.05823448	-1.003661	0.36609483	-0.13969244	-0.79297774	0.4438621	0.14192618	-1.006471	0.35119338	-0.02064012	-0.83074123	0.42875979	0.019783615	-0.99282182	0.7564526	-0.14191651	-0.94662475	0.78882521	0.19980778	-0.91051991	0.80828068	-0.10548042	-0.87348543	0.83531414	0.13099888	-1.0792074	0.89855423	0.03616997	-0.94948501	1.3020926	-0.15892201	-0.95348645	1.287059	0.20380114	-1.0278143	1.335977	0.021451458	-0.94097408	0.97655155	-0.22330229	-1.0719887	0.99434909	0.25714267	-0.72551583	0.8577917	-0.18037043	-0.98365953	0.7751716	0.30943181
65	0.256	-1.3540121	0.082830095	-0.096850723	-0.71714883	0.036164484	0.094304896	-1.3385397	0.21301929	-0.13121469	-0.85063941	0.061655518	0.11873182	-1.3209835	0.21678284	-0.049036548	-0.83517497	0.079744822	0.031260865	-1.3803115	0.27399474	-0.086204081	-0.90827906	0.038371194	0.058238935	-0.99013527	0.36724409	-0.13974347	-0.79116034	0.44329936	0.14286804	-0.99299554	0.35274205	-0.020406322	-0.82826024	0.42880825	0.020453377	-0.98602755	0.75822151	-0.14136907	-0.94024462	0.79025034	0.20045045	-0.9040669	0.81026261	-0.10539605	-0.86741938	0.83655459	0.13170859	-1.0728975	0.90038933	0.036327881	-0.94353859	1.3037973	-0.15879336	-0.94675872	1.2889265	0.20396556	-1.0213678	1.3377501	0.021771966	-0.93620581	0.97818959	-0.22238296	-1.0630793	0.99555363	0.25855256	-0.7217035	0.85729873	-0.18074288	-0.97277569	0.7770439	0.30992247
66	0.26	-1.338292	0.084005369	-0.096084874	-0.71726742	0.03617506	0.094473189	-1.3245112	0.21421664	-0.13049252	-0.85083594	0.061611356	0.11882296	-1.3072824	0.21837282	-0.048398562	-0.83515839	0.079865265	0.031446004	-1.3670647	0.27497078	-0.085747266	-0.90855398	0.038328088	0.058307635	-0.97664688	0.36859476	-0.1397213	-0.78930831	0.44282591	0.14366273	-0.97933956	0.35441099	-0.020163809	-0.82595042	0.42893237	0.02106768	-0.97926816	0.76004532	-0.14085873	-0.93511864	0.7915002	0.20074804	-0.89765769	0.81225909	-0.10533391	-0.86143662	0.83785526	0.13243414	-1.066891	0.90223222	0.036399599	-0.93765166	1.3055657	-0.15866214	-0.94011004	1.2908649	0.2041242	-1.014979	1.3395536	0.022050645	-0.93149443	0.97991661	-0.22147588	-1.0539876	0.99684577	0.26017912	-0.71825659	0.85680583	-0.18124598	-0.96177088	0.77906781	0.31037724
67	0.264	-1.3224055	0.084990197	-0.095424741	-0.7174055	0.036194283	0.094656536	-1.3102427	0.21517499	-0.12973546	-0.85106549	0.061578093	0.11893708	-1.2936315	0.21974325	-0.047681582	-0.83514418	0.079996741	0.031638835	-1.3537314	0.2756621	-0.08521539	-0.90884454	0.03828546	0.058412882	-0.96319576	0.37015572	-0.13963328	-0.78749544	0.44245683	0.14433759	-0.96537602	0.35619214	-0.019912876	-0.82382157	0.42912669	0.021644518	-0.97252957	0.76192668	-0.14038809	-0.93155454	0.79249687	0.20063685	-0.89125897	0.81427535	-0.1052564	-0.85553746	0.83920282	0.13318156	-1.0609045	0.90407517	0.036409997	-0.93181217	1.3073947	-0.15853946	-0.933523	1.2928665	0.20427241	-1.0086473	1.3413834	0.02229045	-0.9268576	0.98173805	-0.22058885	-1.0448919	0.99819443	0.26179394	-0.71510782	0.8563208	-0.18184673	-0.95070003	0.78121867	0.31080374
68	0.268	-1.306288	0.085786572	-0.094816216	-0.71755356	0.036220235	0.094844181	-1.2957741	0.2159026	-0.1290297	-0.85133156	0.061564707	0.11906511	-1.2797678	0.22088013	-0.046953254	-0.83514749	0.080136156	0.031830428	-1.340224	0.27606852	-0.084632316	-0.90905674	0.038293367	0.058510744	-0.94979292	0.37191783	-0.13949112	-0.78584471	0.44220683	0.14495448	-0.95111877	0.35808055	-0.019646908	-0.82182959	0.4293701	0.022161157	-0.96579827	0.76386401	-0.13995471	-0.92874898	0.79337361	0.20036791	-0.88482913	0.81631834	-0.10511692	-0.84969507	0.84059528	0.13396235	-1.0546991	0.90593815	0.036445735	-0.92601076	1.3092834	-0.15842639	-0.92698944	1.2949234	0.20440578	-1.002362	1.3432344	0.022497229	-0.92230016	0.98364953	-0.21973836	-1.0359961	0.99956058	0.26313993	-0.71207259	0.85588253	-0.18244834	-0.93958891	0.78348036	0.31120453
69	0.272	-1.2898917	0.086385092	-0.094211231	-0.71770197	0.036251685	0.095026628	-1.2812297	0.2163991	-0.12836087	-0.85162897	0.061578262	0.11919725	-1.2655094	0.2217798	-0.046251216	-0.83517748	0.08027952	0.032019713	-1.3265269	0.27619539	-0.084025286	-0.90917087	0.038359579	0.058584267	-0.93645648	0.37385968	-0.13930806	-0.78446873	0.44208238	0.14557044	-0.93682335	0.36007372	-0.019342864	-0.81994727	0.42964684	0.02261029	-0.95906225	0.76585554	-0.1395587	-0.92532318	0.7943902	0.20032148	-0.8783475	0.81838219	-0.10489682	-0.84381386	0.84204604	0.13479727	-1.0482369	0.90783519	0.036546422	-0.92023666	1.3112281	-0.15831122	-0.92051639	1.2970329	0.20452728	-0.99610723	1.3451009	0.022678748	-0.91783442	0.98563185	-0.21897571	-1.027342	1.0009341	0.26418313	-0.70904429	0.85552353	-0.18300268	-0.92844411	0.78584284	0.31157931
70	0.276	-1.2732084	0.0867756	-0.093601083	-0.71784473	0.036285958	0.095200794	-1.2666613	0.21667208	-0.12765507	-0.85194252	0.061616673	0.11932853	-1.2508091	0.2224585	-0.045578107	-0.83523141	0.080423054	0.032213197	-1.312689	0.27604215	-0.083397322	-0.90922522	0.038458145	0.058637467	-0.92319892	0.37595953	-0.13909118	-0.78338987	0.44205858	0.14620404	-0.92280902	0.36217545	-0.0189605	-0.81816843	0.42995076	0.022999975	-0.95230978	0.76790297	-0.13919839	-0.92047634	0.79567756	0.20069366	-0.87183442	0.82044511	-0.10462955	-0.83772002	0.84357293	0.1357157	-1.0416325	0.90975157	0.036671457	-0.91448262	1.3132256	-0.1581802	-0.91410125	1.2991893	0.20464262	-0.98986962	1.346978	0.022843165	-0.91348589	0.98765292	-0.21836972	-1.0188338	1.0023306	0.26507044	-0.70605466	0.85524425	-0.18354567	-0.91726284	0.78829909	0.31192674
71	0.28	-1.2562527	0.086952358	-0.092997881	-0.71797846	0.036319026	0.095369397	-1.2519839	0.21673464	-0.1269036	-0.85225233	0.061667634	0.11945925	-1.2357182	0.22292304	-0.0449348	-0.83529646	0.080564447	0.032416972	-1.2987664	0.27559868	-0.082717744	-0.90925803	0.038565073	0.058675578	-0.9100119	0.37820511	-0.13883705	-0.78247242	0.44208503	0.14681813	-0.90916981	0.36439006	-0.018484158	-0.81646036	0.43027913	0.023328766	-0.94552923	0.77000437	-0.13886501	-0.91446427	0.79715485	0.20140429	-0.86532603	0.82248937	-0.10436466	-0.83127583	0.84517673	0.13673694	-1.0349978	0.91164712	0.036759811	-0.9087434	1.3152719	-0.15802844	-0.90769305	1.3013708	0.20475257	-0.98364103	1.3488593	0.022999988	-0.90926505	0.98969243	-0.21793233	-1.0103611	1.0037636	0.26593183	-0.70317486	0.85502039	-0.18413482	-0.90603987	0.79084468	0.31224095
72	0.284	-1.2390523	0.086924821	-0.092418608	-0.7181005	0.036348813	0.095533395	-1.2371139	0.21659166	-0.12614286	-0.85254136	0.061716505	0.11958919	-1.2203825	0.22316217	-0.044315141	-0.83535781	0.080704812	0.032628208	-1.28482	0.27487411	-0.081934478	-0.90928777	0.038671942	0.058707554	-0.89687041	0.38059143	-0.13853975	-0.78151004	0.44212627	0.14735973	-0.89571934	0.36670609	-0.017957008	-0.81475882	0.43062975	0.023589179	-0.9387133	0.77214491	-0.13854759	-0.90809882	0.79866669	0.2022292	-0.85883223	0.82452195	-0.1041146	-0.82463619	0.84682306	0.13781971	-1.0283742	0.91348806	0.036798598	-0.90300381	1.3173549	-0.15786317	-0.90119628	1.3035456	0.20485261	-0.97741619	1.3507354	0.023160306	-0.90513745	0.99177118	-0.21758508	-1.0018415	1.0052244	0.26678901	-0.7004241	0.85483024	-0.18479089	-0.89477339	0.7934738	0.31251063
73	0.288	-1.2216564	0.086727031	-0.091863755	-0.71820965	0.036376246	0.095684952	-1.2220593	0.21624316	-0.12538976	-0.85279873	0.061756421	0.11971473	-1.2050043	0.2231694	-0.043683641	-0.83541067	0.08084732	0.032830885	-1.2708799	0.27388461	-0.081048597	-0.90932031	0.038778115	0.058745815	-0.88375627	0.3831113	-0.1382028	-0.78037783	0.44218362	0.14782051	-0.88220528	0.3691216	-0.017442603	-0.81304455	0.43098809	0.023788783	-0.93186027	0.77430416	-0.13823709	-0.90200169	0.80010651	0.20297936	-0.8523279	0.82656538	-0.10384362	-0.81838203	0.84845141	0.1388289	-1.02179	0.91528382	0.03685738	-0.89723866	1.319454	-0.15769637	-0.89455758	1.3056981	0.20493697	-0.97118929	1.3525992	0.023334196	-0.90105418	0.99393475	-0.21726683	-0.99322381	1.0066793	0.26757243	-0.6977774	0.85466743	-0.18550421	-0.88346685	0.79617476	0.31272854
74	0.292	-1.2041396	0.086391299	-0.091264724	-0.71830693	0.036403086	0.095811318	-1.2068651	0.21568806	-0.12464437	-0.85301639	0.061791092	0.11983025	-1.189754	0.22294769	-0.043000029	-0.83546178	0.080992505	0.033000781	-1.2568661	0.27260297	-0.080192054	-0.90935786	0.038877373	0.058794201	-0.87067215	0.38575851	-0.13784008	-0.77906389	0.44226902	0.14822316	-0.86852259	0.37169072	-0.016952015	-0.81141317	0.43131558	0.023957269	-0.9249729	0.77646892	-0.13793048	-0.89625828	0.80145394	0.20362662	-0.84577229	0.8286324	-0.10349141	-0.81306834	0.8500224	0.13962419	-1.0153501	0.91708071	0.037092376	-0.89143287	1.3215511	-0.1575322	-0.88785067	1.3078408	0.20500132	-0.96495504	1.3544488	0.02352686	-0.89700078	0.9962001	-0.21698884	-0.98454566	1.0080942	0.26818775	-0.69521367	0.85452971	-0.18627012	-0.87212496	0.79893541	0.31289625
75	0.296	-1.1865455	0.085907221	-0.090515919	-0.71839444	0.036430008	0.095905331	-1.1915577	0.21492093	-0.12389592	-0.85318415	0.061829743	0.11992902	-1.1746215	0.22250789	-0.042273689	-0.83551792	0.081137456	0.033122122	-1.2426711	0.27097532	-0.079499083	-0.90940329	0.038953585	0.058845518	-0.8576325	0.38852998	-0.13746228	-0.77765351	0.44237304	0.14856349	-0.85472576	0.374509	-0.016425989	-0.81002918	0.43158317	0.024119816	-0.91805943	0.7786332	-0.13765461	-0.89061464	0.80275115	0.20428473	-0.83914702	0.83071147	-0.10303207	-0.80848513	0.85156465	0.14022633	-1.0092247	0.91890134	0.037704644	-0.88559092	1.32364	-0.1573654	-0.88120649	1.3099923	0.20504026	-0.95871271	1.3562849	0.023737915	-0.89297588	0.99853638	-0.21670087	-0.97594868	1.0094771	0.26862826	-0.69272069	0.85441457	-0.18709103	-0.860747	0.80175072	0.31301466
76	0.3	-1.1687823	0.085250053	-0.089652183	-0.71847336	0.036455331	0.095969614	-1.176143	0.21394275	-0.12312598	-0.85329424	0.061875451	0.12000147	-1.1594193	0.22186896	-0.041549568	-0.83557515	0.081280637	0.033202497	-1.2283341	0.26899513	-0.07888572	-0.90945783	0.038997325	0.05888935	-0.84464655	0.39141761	-0.13706989	-0.77632857	0.44246121	0.14879668	-0.8409804	0.37763131	-0.015789667	-0.80900476	0.43181423	0.024270092	-0.91113066	0.78079147	-0.13747886	-0.8848974	0.80403923	0.20505394	-0.83249894	0.83277083	-0.10253833	-0.80384063	0.85314451	0.14079861	-1.0034577	0.92071075	0.038751901	-0.87972076	1.3257218	-0.15719422	-0.87466932	1.3121484	0.20504814	-0.95246611	1.3581048	0.023967673	-0.88895992	1.0008945	-0.2162771	-0.96752002	1.0108815	0.26903906	-0.69027685	0.85432766	-0.18795681	-0.84932569	0.80461969	0.31307948
